<svg width="40" height="40" viewBox="0 0 40 40" fill="none" xmlns="http://www.w3.org/2000/svg">
<path d="M40 20C40 17.4509 37.9312 15.3821 35.3821 15.3821H31.1475L34.1445 12.3851C35.9501 10.5795 35.9501 7.65643 34.1445 5.85546C32.339 4.05449 29.4158 4.04987 27.6149 5.85546L24.6179 8.85246V4.61787C24.6179 2.06881 22.5491 0 20 0C17.4509 0 15.3821 2.06881 15.3821 4.61787V8.85246L12.3851 5.85546C10.5795 4.04987 7.65643 4.04987 5.85546 5.85546C4.05449 7.66105 4.04987 10.5842 5.85546 12.3851L8.85246 15.3821H4.61787C2.06881 15.3821 0 17.4509 0 20C0 22.5491 2.06881 24.6179 4.61787 24.6179H8.85246L5.85546 27.6149C4.04987 29.4205 4.04987 32.3436 5.85546 34.1445C7.66105 35.9501 10.5842 35.9501 12.3851 34.1445L15.3821 31.1475V35.3821C15.3821 37.9312 17.4509 40 20 40C22.5491 40 24.6179 37.9312 24.6179 35.3821V31.1475L27.6149 34.1445C29.4205 35.9501 32.3436 35.9501 34.1445 34.1445C35.9501 32.339 35.9501 29.4158 34.1445 27.6149L31.1475 24.6179H35.3821C37.9312 24.6179 40 22.5491 40 20Z" fill="#85F0AE"/>
</svg>
